<svg width="348" height="54" viewBox="0 0 348 54" fill="none" xmlns="http://www.w3.org/2000/svg">
<path d="M46.1851 0.997925H38.7615C36.2096 0.997925 35.823 2.69916 35.2817 3.62711L24.6103 22.65L14.0163 3.62711C13.3976 2.69915 13.0883 0.997925 10.4591 0.997925H2.80357C1.02501 0.997925 0.561035 1.84854 0.561035 3.24046V49.7151C0.561035 51.4937 1.41165 51.9577 2.80357 51.9577H10.4591C11.851 51.9577 12.7017 51.4937 12.7017 49.7151V23.5006L20.5119 37.0332C20.8985 37.6518 21.5171 38.6571 22.6771 38.6571H26.5435C27.7035 38.6571 28.3994 37.6518 28.7861 37.0332L36.519 23.5006V49.7151C36.519 51.4937 37.3696 51.9577 38.7615 51.9577H46.1851C47.577 51.9577 48.4276 51.4937 48.4276 49.7151V3.24046C48.4276 1.84854 47.9636 0.997925 46.1851 0.997925Z" fill="black"/>
<path d="M79.2816 16.6956L90.5716 49.6378C91.1903 51.4937 91.8089 51.9577 93.5101 51.9577H102.326C104.027 51.9577 104.027 50.7204 103.64 49.7924L86.5506 3.47239C85.8546 1.84848 85.0813 1.0752 83.38 1.0752H75.9565C74.2553 1.0752 73.4046 1.84848 72.786 3.47239L55.619 49.7924C55.2324 50.7204 55.2324 51.9577 56.9336 51.9577H65.3624C67.0637 51.9577 67.6823 51.4937 68.3009 49.6378L79.2816 16.6956Z" fill="black"/>
<path d="M144.933 41.1316H122.663V3.31773C122.663 1.53917 121.812 1.0752 120.42 1.0752H112.764C111.373 1.0752 110.522 1.53917 110.522 3.31773V49.7151C110.522 51.107 110.986 51.9576 112.764 51.9576H144.933C146.712 51.9576 147.176 51.107 147.176 49.7151V43.3741C147.176 41.9822 146.712 41.1316 144.933 41.1316Z" fill="black"/>
<path d="M189.939 41.1316H167.668V3.31773C167.668 1.53917 166.818 1.0752 165.426 1.0752H157.77C156.378 1.0752 155.528 1.53917 155.528 3.31773V49.7151C155.528 51.107 155.992 51.9576 157.77 51.9576H189.939C191.718 51.9576 192.182 51.107 192.182 49.7151V43.3741C192.182 41.9822 191.718 41.1316 189.939 41.1316Z" fill="black"/>
<path d="M239.817 1.0752H232.162C230.77 1.0752 229.919 1.53917 229.919 3.31773V20.7941H212.675V3.31773C212.675 1.53917 211.902 1.0752 210.432 1.0752H202.777C201.385 1.0752 200.534 1.53917 200.534 3.31773V49.7151C200.534 51.4936 201.385 51.9576 202.777 51.9576H210.432C211.902 51.9576 212.675 51.4936 212.675 49.7151V32.2387H229.919V49.7151C229.919 51.4936 230.77 51.9576 232.162 51.9576H239.817C241.209 51.9576 242.06 51.4936 242.06 49.7151V3.31773C242.06 1.53917 241.209 1.0752 239.817 1.0752Z" fill="black"/>
<path d="M291.55 1.0752H283.894C282.502 1.0752 281.652 1.53917 281.652 3.31773V34.7133C281.652 39.585 278.404 42.3688 273.3 42.3688C268.196 42.3688 265.026 39.585 265.026 34.7133V3.31773C265.026 1.53917 264.175 1.0752 262.783 1.0752H255.128C253.736 1.0752 252.885 1.53917 252.885 3.31773V36.4145C252.885 48.5551 264.098 53.1175 273.3 53.1175C282.502 53.1175 293.792 48.5551 293.792 36.4145V3.31773C293.792 1.53917 292.942 1.0752 291.55 1.0752Z" fill="black"/>
<path d="M340.886 25.5885C341.582 25.2792 346.531 22.8047 346.531 14.9944C346.531 7.72553 341.118 0.997925 328.513 0.997925H306.861C305.083 0.997925 304.619 1.84854 304.619 3.24046V49.7151C304.619 51.107 305.083 51.9577 306.861 51.9577H329.596C340.345 51.9577 348 46.9313 348 37.1105C348 28.759 341.504 25.8205 340.886 25.5885ZM329.751 40.977H316.759V11.9013H328.513C332.534 11.9013 334.932 12.7519 334.932 16.2317C334.932 19.2475 332.998 20.8715 328.513 20.8715H327.508C325.729 20.8715 325.265 21.7221 325.265 23.114V28.991C325.265 30.3829 325.729 31.2335 327.508 31.2335H329.287C332.998 31.2335 335.705 32.3161 335.705 35.9506C335.705 39.4304 333.54 40.977 329.751 40.977V40.977Z" fill="black"/>
</svg>
