<svg width="25" height="25" viewBox="0 0 25 25" fill="none" xmlns="http://www.w3.org/2000/svg">
<path d="M4.68753 23.0469C4.68519 23.3548 4.80508 23.6512 5.02092 23.8708C5.23675 24.0905 5.5309 24.2156 5.83885 24.2188H19.1612C19.4692 24.2156 19.7633 24.0905 19.9792 23.8708C20.195 23.6512 20.3149 23.3548 20.3125 23.0469V7.42188H4.68753V23.0469ZM6.25003 8.98438H18.75V22.6562H6.25003V8.98438Z" fill="#CBCBCB"/>
<path d="M8.20312 10.5469H9.76562V20.3125H8.20312V10.5469ZM11.7188 10.5469H13.2812V20.3125H11.7188V10.5469ZM15.2344 10.5469H16.7969V20.3125H15.2344V10.5469ZM16.0156 4.29688V1.95312C16.0156 1.296 15.5523 0.78125 14.9609 0.78125H10.0391C9.44766 0.78125 8.98438 1.296 8.98438 1.95312V4.29688H3.125V5.85938H21.875V4.29688H16.0156ZM10.5469 2.34375H14.4531V4.29688H10.5469V2.34375Z" fill="#CBCBCB"/>
</svg>
